<svg width="121" height="23" viewBox="0 0 121 23" fill="none" xmlns="http://www.w3.org/2000/svg">
<path d="M13.1204 10.9669H15.7444L13.8605 5.44981H9.35263L7.46875 0H15.879C17.09 0 18.1665 0.740098 18.5702 1.88388L22.338 12.8508C22.6071 13.6582 22.4725 14.6001 21.9343 15.3402C21.396 16.0803 20.5887 16.484 19.6467 16.484H13.1204L11.2365 10.9669H13.1204Z" fill="#0085FF"/>
<path d="M0.538253 6.66088C1.07651 5.92078 1.88388 5.51709 2.82583 5.51709H9.35214L11.236 11.0342H6.72816L8.61204 16.5513H13.1199L15.0038 22.0684H6.5936C5.38253 22.0684 4.30602 21.3283 3.90233 20.1845L0.134563 9.08301C-0.134563 8.27564 0 7.33369 0.538253 6.5936V6.66088Z" fill="#0085FF"/>
<path d="M31.0174 19.7924V10.1914H29V7.42041H34.3474V19.7924H31.0174Z" fill="#1C1C1C"/>
<path d="M32.537 5.71889C31.9901 5.71889 31.5282 5.54267 31.1697 5.19023C30.8112 4.83778 30.6289 4.39419 30.6289 3.85945C30.6289 3.3247 30.8112 2.88111 31.1697 2.52867C31.5282 2.17622 31.9901 2 32.537 2C33.0839 2 33.5457 2.17622 33.9042 2.52867C34.2627 2.88111 34.445 3.3247 34.445 3.85945C34.445 4.39419 34.2627 4.83778 33.9042 5.19023C33.5457 5.54267 33.0839 5.71889 32.537 5.71889Z" fill="#1C1C1C"/>
<path d="M45.6009 19.7925V13.2662C45.6009 11.0787 44.732 9.97271 43.0123 9.97271C42.1069 9.97271 41.3959 10.2826 40.8976 10.8964C40.4054 11.504 40.1563 12.3669 40.1563 13.4607V19.7925H36.8506V7.42052H39.7309L40.0651 9.05514L40.1441 8.95791C40.5756 8.43532 41.0981 8.01603 41.7058 7.72436C42.3135 7.43268 43.073 7.28076 43.9663 7.28076C45.4004 7.28076 46.5975 7.73043 47.5211 8.6237C48.4448 9.51696 48.9127 11.0118 48.9127 13.0779V19.7986H45.607L45.6009 19.7925Z" fill="#1C1C1C"/>
<path d="M55.5061 19.7926C53.1423 19.7926 51.9938 18.6441 51.9938 16.2803V10.1915H49.9277V7.42055H51.9938V3.92041H55.2995V7.42055H58.1433V10.1915H55.2995V15.7212C55.2995 16.1709 55.3967 16.5051 55.5972 16.7117C55.7917 16.9183 56.1259 17.0216 56.5756 17.0216H58.2892V19.7926H55.5061Z" fill="#1C1C1C"/>
<path d="M71.6943 14.3233C71.749 14.0012 71.7794 13.6245 71.7794 13.2174C71.7611 12.0203 71.4816 10.9629 70.9469 10.0757C70.4121 9.18855 69.6586 8.49582 68.7107 8.00969C67.7627 7.52356 66.6446 7.27441 65.3989 7.27441C64.1532 7.27441 63.0716 7.53571 62.1358 8.0583C61.2 8.57481 60.4647 9.32224 59.9482 10.2702C59.4317 11.2181 59.1643 12.3484 59.1643 13.6306C59.1643 14.9127 59.4378 16.0187 59.9725 16.9666C60.5072 17.9146 61.285 18.6559 62.2816 19.1664C63.2782 19.6768 64.4874 19.9381 65.8607 19.9381C66.9181 19.9381 67.866 19.7497 68.6803 19.373C69.4946 18.9962 70.1569 18.4797 70.6491 17.8234C71.1292 17.1915 71.4391 16.4683 71.5728 15.6845H68.3157C68.1638 16.2557 67.8539 16.6993 67.3921 16.997C66.9242 17.3008 66.3286 17.4588 65.6177 17.4588C64.7305 17.4588 64.0195 17.1915 63.5091 16.6628C62.9987 16.1341 62.7009 15.4049 62.6158 14.4813V14.3233H71.6943ZM62.6887 12.1418C62.786 11.4004 63.102 10.8049 63.6185 10.3674C64.1411 9.9299 64.7852 9.71114 65.5387 9.71114C66.2922 9.71114 66.991 9.92382 67.5075 10.3431C68.0301 10.7624 68.3522 11.3701 68.4676 12.1418L68.4798 12.2086H62.6766L62.6887 12.1418Z" fill="#1C1C1C"/>
<path d="M86.2178 2.30371H82.9121V19.7922H86.2178V2.30371Z" fill="#1C1C1C"/>
<path d="M73.7727 19.7924V7.42041H76.7746L77.1088 9.40139L77.1938 9.26163C77.5584 8.66004 78.0203 8.19214 78.555 7.88831C79.0958 7.5784 79.825 7.42041 80.7365 7.42041H81.2591V10.4101H79.9587C78.9682 10.4101 78.2329 10.7139 77.7711 11.3094C77.3093 11.8989 77.0784 12.7132 77.0784 13.7279V19.7924H73.7727Z" fill="#1C1C1C"/>
<path d="M91.9538 7.42041H88.6238V19.7924H91.9538V7.42041Z" fill="#1C1C1C"/>
<path d="M115.081 19.9381C113.702 19.9381 112.499 19.6768 111.502 19.1664C110.506 18.6559 109.728 17.9146 109.193 16.9666C108.658 16.0187 108.385 14.8945 108.385 13.6306C108.385 12.3666 108.646 11.2181 109.169 10.2702C109.685 9.32224 110.421 8.57481 111.356 8.0583C112.292 7.54178 113.392 7.27441 114.62 7.27441C115.847 7.27441 116.983 7.52356 117.931 8.00969C118.879 8.49582 119.633 9.19463 120.168 10.0757C120.702 10.9629 120.982 12.0203 121 13.2174C121 13.6245 120.97 13.9952 120.915 14.3233H111.836V14.4813C111.915 15.4049 112.219 16.1341 112.73 16.6628C113.24 17.1915 113.951 17.4588 114.838 17.4588C115.543 17.4588 116.139 17.3069 116.613 16.997C117.075 16.6993 117.384 16.2557 117.536 15.6845H120.793C120.66 16.4683 120.35 17.1915 119.87 17.8234C119.378 18.4797 118.715 18.9962 117.901 19.373C117.087 19.7497 116.139 19.9381 115.081 19.9381ZM114.765 9.70506C114.012 9.70506 113.362 9.92382 112.845 10.3613C112.323 10.7989 112.013 11.3944 111.909 12.1357V12.2026H117.707L117.694 12.1357C117.579 11.364 117.257 10.7563 116.734 10.337C116.212 9.91775 115.549 9.70506 114.765 9.70506ZM103.281 19.7923V13.266C103.281 11.0784 102.412 9.97244 100.692 9.97244C99.7866 9.97244 99.0756 10.2823 98.5773 10.8961C98.0851 11.5037 97.8359 12.3666 97.8359 13.4604V19.7923H94.5303V7.42025H97.4106L97.7448 9.05487L97.8238 8.95764C98.2552 8.43505 98.7778 8.01576 99.3855 7.72408C99.9871 7.43241 100.747 7.28049 101.646 7.28049C103.08 7.28049 104.277 7.73016 105.201 8.62342C106.124 9.51669 106.592 11.0115 106.592 13.0776V19.7983H103.287L103.281 19.7923Z" fill="#1C1C1C"/>
<path d="M90.2887 5.71889C89.7418 5.71889 89.28 5.54267 88.9214 5.19023C88.5629 4.83778 88.3806 4.39419 88.3806 3.85945C88.3806 3.3247 88.5629 2.88111 88.9214 2.52867C89.28 2.17622 89.7418 2 90.2887 2C90.8356 2 91.2974 2.17622 91.6559 2.52867C92.0144 2.88111 92.1967 3.3247 92.1967 3.85945C92.1967 4.39419 92.0144 4.83778 91.6559 5.19023C91.2974 5.54267 90.8356 5.71889 90.2887 5.71889Z" fill="#1C1C1C"/>
</svg>
